<?xml version="1.0" encoding="utf-8"?>
<!-- Generator: Adobe Illustrator 26.0.1, SVG Export Plug-In . SVG Version: 6.00 Build 0)  -->
<svg version="1.1" id="Layer_1" xmlns="http://www.w3.org/2000/svg" xmlns:xlink="http://www.w3.org/1999/xlink" x="0px" y="0px"
	 viewBox="0 0 40 40" enable-background="new 0 0 40 40" xml:space="preserve">
<g>
	<path fill="#1F0040" d="M2.1094,2.5973h35.7812v34.8054H2.1094V2.5973z"/>
	<path fill="#D291FF" d="M0.483,0.9709v38.0582h39.034V0.9709H0.483z M2.1094,2.5973h35.7812v34.8054H2.1094V2.5973z
		 M11.5101,22.5209l-1.2849,4.863c-0.0325,0.1301-0.0813,0.1789-0.244,0.1789H7.5904c-0.1626,0-0.1952-0.0488-0.1626-0.244
		l4.619-16.1503c0.0813-0.2928,0.1301-0.5205,0.1626-1.3337c0-0.1138,0.0488-0.1626,0.1301-0.1626h3.4155
		c0.1138,0,0.1626,0.0325,0.1952,0.1626l5.172,17.5165c0.0325,0.1301,0,0.2114-0.1301,0.2114h-2.6836
		c-0.1301,0-0.2114-0.0488-0.244-0.1626l-1.3499-4.8793H11.5101z M16.0803,19.8862c-0.4554-1.8053-1.5614-5.7413-1.968-7.6442
		h-0.0325c-0.3415,1.9029-1.2361,5.1232-1.9029,7.6442H16.0803L16.0803,19.8862z M24.7979,21.5451
		c0.0325,2.1957,1.0734,3.6757,3.5456,3.6757c0.9596,0,1.7891-0.1301,2.6511-0.5042c0.1138-0.0488,0.1952-0.0325,0.1952,0.1138
		v2.033c0,0.1626-0.0488,0.244-0.1626,0.3253c-0.862,0.4229-1.9354,0.618-3.2691,0.618c-4.2937,0-5.9039-3.1715-5.9039-6.7171
		c0-3.8383,1.9842-6.9773,5.481-6.9773c3.5456,0,4.7817,2.9763,4.7817,5.3997c0,0.7807-0.0488,1.415-0.1301,1.724
		c-0.0325,0.1301-0.0813,0.1789-0.2114,0.2114c-0.3253,0.0488-1.2849,0.1138-2.7161,0.1138L24.7979,21.5451z M28.0996,19.3006
		c0.8295,0,1.1222,0,1.2035-0.0325c0-0.1138,0.0325-0.1952,0.0325-0.2765c0-0.8783-0.4229-2.5047-2.1143-2.5047
		c-1.5614,0-2.2282,1.3662-2.3908,2.8137H28.0996z"/>
</g>
</svg>
